<svg width="52" height="52" viewBox="0 0 52 52" fill="none" xmlns="http://www.w3.org/2000/svg">
<g clip-path="url(#clip0_1270_1451)">
<mask id="mask0_1270_1451" style="mask-type:luminance" maskUnits="userSpaceOnUse" x="0" y="0" width="52" height="52">
<path d="M52 0H0V52H52V0Z" fill="white"/>
</mask>
<g mask="url(#mask0_1270_1451)">
<path d="M35.0784 4.33333C42.9648 4.33337 47.6663 9.03486 47.6448 16.9212V35.0784C47.6447 42.9649 42.9433 47.6662 35.0569 47.6663H16.9211C9.03484 47.6662 4.33337 42.965 4.33325 35.057V16.9212C4.33343 9.03497 9.03489 4.3335 16.9211 4.33333H35.0784ZM25.4583 15.1663C24.57 15.1663 23.8334 15.9031 23.8333 16.7913V25.6751C23.8333 27.6034 25.0683 29.7918 26.7366 30.7884L33.4534 34.7972C33.7133 34.9703 33.9951 35.0355 34.2766 35.0355C34.8181 35.0354 35.3598 34.7535 35.6848 34.2337C36.1398 33.4537 35.9013 32.4563 35.1213 32.0013L28.4045 27.9935C27.7329 27.6034 27.0833 26.4551 27.0833 25.6751V16.7913C27.0831 15.9032 26.3464 15.1664 25.4583 15.1663Z" fill="black"/>
</g>
</g>
<defs>
<clipPath id="clip0_1270_1451">
<rect width="52" height="52" fill="white"/>
</clipPath>
</defs>
</svg>
