<svg width="76" height="76" viewBox="0 0 76 76" fill="none" xmlns="http://www.w3.org/2000/svg">
<mask id="mask0_1270_1417" style="mask-type:luminance" maskUnits="userSpaceOnUse" x="-1" y="0" width="77" height="77">
<path d="M75.9998 0.00012207H-0.000244141V76.0001H75.9998V0.00012207Z" fill="white"/>
</mask>
<g mask="url(#mask0_1270_1417)">
<path opacity="0.4" d="M66.7844 68.0834C66.7844 68.97 66.0877 69.6667 65.201 69.6667H10.7978C9.91114 69.6667 9.21448 68.97 9.21448 68.0834C9.21448 54.9734 22.1345 44.3334 37.9994 44.3334C41.261 44.3334 44.4277 44.7767 47.3411 45.6317C45.4727 47.8484 44.3327 50.73 44.3327 53.8334C44.3327 56.2084 44.9977 58.4567 46.1694 60.3567C46.8027 61.4334 47.626 62.415 48.576 63.2384C50.7927 65.265 53.7377 66.5 56.9994 66.5C60.546 66.5 63.7444 65.0434 66.0244 62.7C66.5311 64.41 66.7844 66.215 66.7844 68.0834Z" fill="black"/>
<path d="M56.9995 41.169C63.9787 41.1692 69.6655 46.8499 69.6655 53.8204C69.6654 60.7907 63.9786 66.4706 56.9995 66.4707C50.0203 66.4707 44.3327 60.7908 44.3325 53.8204C44.3325 46.8497 50.0202 41.169 56.9995 41.169ZM56.8325 45.9366C55.866 45.9366 55.0825 46.7201 55.0825 47.6866V54.0997L55.0923 54.3721C55.1907 55.7255 56.0163 56.9294 57.2612 57.504L61.0991 59.2754C61.9766 59.6804 63.0163 59.2975 63.4214 58.42C63.8264 57.5424 63.4434 56.5027 62.5659 56.0977L58.728 54.3262C58.6616 54.2955 58.6123 54.238 58.5923 54.17L58.5825 54.0997V47.6866C58.5825 46.7201 57.799 45.9366 56.8325 45.9366Z" fill="black"/>
<path d="M37.999 38C46.7434 38 53.8323 30.9112 53.8323 22.1667C53.8323 13.4222 46.7434 6.33336 37.999 6.33336C29.2545 6.33336 22.1656 13.4222 22.1656 22.1667C22.1656 30.9112 29.2545 38 37.999 38Z" fill="black"/>
</g>
</svg>
