<svg width="52" height="52" viewBox="0 0 52 52" fill="none" xmlns="http://www.w3.org/2000/svg">
<g clip-path="url(#clip0_1270_1387)">
<mask id="mask0_1270_1387" style="mask-type:luminance" maskUnits="userSpaceOnUse" x="0" y="0" width="52" height="52">
<path d="M52 0H0V52H52V0Z" fill="white"/>
</mask>
<g mask="url(#mask0_1270_1387)">
<path opacity="0.4" d="M26.0002 47.6666C37.9662 47.6666 47.6668 37.966 47.6668 25.9999C47.6668 14.0337 37.9662 4.33325 26.0002 4.33325C14.034 4.33325 4.3335 14.0337 4.3335 25.9999C4.3335 37.966 14.034 47.6666 26.0002 47.6666Z" fill="black"/>
<path d="M34.0381 34.5146C33.7564 34.5146 33.4747 34.4496 33.2147 34.2763L26.4981 30.268C24.8297 29.2713 23.5947 27.083 23.5947 25.1546V16.2712C23.5947 15.3829 24.3314 14.6462 25.2197 14.6462C26.1081 14.6462 26.8447 15.3829 26.8447 16.2712V25.1546C26.8447 25.9346 27.4947 27.083 28.1664 27.473L34.8831 31.4813C35.6631 31.9363 35.9014 32.933 35.4464 33.713C35.1214 34.233 34.5797 34.5146 34.0381 34.5146Z" fill="black"/>
</g>
</g>
<defs>
<clipPath id="clip0_1270_1387">
<rect width="52" height="52" fill="white"/>
</clipPath>
</defs>
</svg>
