<svg width="52" height="52" viewBox="0 0 52 52" fill="none" xmlns="http://www.w3.org/2000/svg">
<g clip-path="url(#clip0_1270_1238)">
<mask id="mask0_1270_1238" style="mask-type:luminance" maskUnits="userSpaceOnUse" x="0" y="0" width="52" height="52">
<path d="M52 0H0V52H52V0Z" fill="white"/>
</mask>
<g mask="url(#mask0_1270_1238)">
<mask id="mask1_1270_1238" style="mask-type:luminance" maskUnits="userSpaceOnUse" x="0" y="0" width="52" height="52">
<path d="M52 0H0V52H52V0Z" fill="white"/>
</mask>
<g mask="url(#mask1_1270_1238)">
<path d="M32.5003 49.2916H19.5003C9.94533 49.2916 7.04199 46.3883 7.04199 36.8333V15.1666C7.04199 5.61165 9.94533 2.70831 19.5003 2.70831H32.5003C42.0553 2.70831 44.9587 5.61165 44.9587 15.1666V36.8333C44.9587 46.3883 42.0553 49.2916 32.5003 49.2916ZM19.5003 5.95831C11.7437 5.95831 10.292 7.43165 10.292 15.1666V36.8333C10.292 44.5683 11.7437 46.0416 19.5003 46.0416H32.5003C40.257 46.0416 41.7087 44.5683 41.7087 36.8333V15.1666C41.7087 7.43165 40.257 5.95831 32.5003 5.95831H19.5003Z" fill="black"/>
<path d="M30.3337 13.5417H21.667C20.7787 13.5417 20.042 12.805 20.042 11.9167C20.042 11.0284 20.7787 10.2917 21.667 10.2917H30.3337C31.222 10.2917 31.9587 11.0284 31.9587 11.9167C31.9587 12.805 31.222 13.5417 30.3337 13.5417Z" fill="black"/>
<path d="M26.001 43.0297C23.2494 43.0297 21.0176 40.798 21.0176 38.0463C21.0176 35.2947 23.2494 33.063 26.001 33.063C28.7527 33.063 30.9844 35.2947 30.9844 38.0463C30.9844 40.798 28.7527 43.0297 26.001 43.0297ZM26.001 36.2913C25.0477 36.2913 24.2677 37.0713 24.2677 38.0247C24.2677 38.978 25.0477 39.758 26.001 39.758C26.9544 39.758 27.7344 38.978 27.7344 38.0247C27.7344 37.0713 26.9544 36.2913 26.001 36.2913Z" fill="black"/>
</g>
</g>
</g>
<defs>
<clipPath id="clip0_1270_1238">
<rect width="52" height="52" fill="white"/>
</clipPath>
</defs>
</svg>
