<svg width="52" height="52" viewBox="0 0 52 52" fill="none" xmlns="http://www.w3.org/2000/svg">
<mask id="mask0_1270_1377" style="mask-type:luminance" maskUnits="userSpaceOnUse" x="0" y="0" width="52" height="52">
<path d="M52 0H0V52H52V0Z" fill="white"/>
</mask>
<g mask="url(#mask0_1270_1377)">
<path opacity="0.4" d="M37.9818 16.8354C37.8301 16.8137 37.6784 16.8137 37.5268 16.8354C34.1684 16.7271 31.5034 13.9754 31.5034 10.5954C31.5034 7.15041 34.2984 4.33374 37.7651 4.33374C41.2101 4.33374 44.0268 7.12874 44.0268 10.5954C44.0051 13.9754 41.3401 16.7271 37.9818 16.8354Z" fill="black"/>
<path opacity="0.4" d="M45.0451 31.8509C42.6185 33.4759 39.2168 34.0825 36.0751 33.6709C36.8985 31.8942 37.3318 29.9225 37.3535 27.8425C37.3535 25.6759 36.8768 23.6175 35.9668 21.8192C39.1735 21.3859 42.5751 21.9925 45.0235 23.6175C48.4468 25.8709 48.4468 29.5759 45.0451 31.8509Z" fill="black"/>
<path opacity="0.4" d="M13.9532 16.8354C14.1049 16.8137 14.2565 16.8137 14.4082 16.8354C17.7665 16.7271 20.4315 13.9754 20.4315 10.5954C20.4315 7.15041 17.6365 4.33374 14.1699 4.33374C10.7249 4.33374 7.9082 7.12874 7.9082 10.5954C7.92987 13.9754 10.5949 16.7271 13.9532 16.8354Z" fill="black"/>
<path opacity="0.4" d="M14.1919 27.841C14.1919 29.9426 14.6469 31.936 15.4702 33.7343C12.4152 34.0593 9.23025 33.4093 6.89025 31.871C3.46692 29.596 3.46692 25.891 6.89025 23.616C9.20859 22.056 12.4802 21.4277 15.5569 21.7743C14.6686 23.5943 14.1919 25.6526 14.1919 27.841Z" fill="black"/>
<path d="M26.2604 34.3852C26.0871 34.3636 25.8921 34.3636 25.6971 34.3852C21.7104 34.2552 18.5254 30.9836 18.5254 26.9536C18.5254 22.8369 21.8404 19.5002 25.9787 19.5002C30.0954 19.5002 33.4321 22.8369 33.4321 26.9536C33.4321 30.9836 30.2687 34.2552 26.2604 34.3852Z" fill="black"/>
<path d="M19.2189 38.869C15.9472 41.0573 15.9472 44.654 19.2189 46.8207C22.9456 49.3123 29.0556 49.3123 32.7822 46.8207C36.0539 44.6323 36.0539 41.0357 32.7822 38.869C29.0772 36.3773 22.9672 36.3773 19.2189 38.869Z" fill="black"/>
</g>
</svg>
