<svg width="52" height="52" viewBox="0 0 52 52" fill="none" xmlns="http://www.w3.org/2000/svg">
<g clip-path="url(#clip0_1270_1250)">
<path d="M49.1111 28.8889H2.88889C1.30963 28.8889 0 27.5792 0 26C0 24.4207 1.30963 23.1111 2.88889 23.1111H49.1111C50.6904 23.1111 52 24.4207 52 26C52 27.5792 50.6904 28.8889 49.1111 28.8889Z" fill="black"/>
<path d="M26.0002 52C24.421 52 23.1113 50.6904 23.1113 49.1111V2.88889C23.1113 1.30963 24.421 0 26.0002 0C27.5795 0 28.8891 1.30963 28.8891 2.88889V49.1111C28.8891 50.6904 27.5795 52 26.0002 52Z" fill="black"/>
</g>
<defs>
<clipPath id="clip0_1270_1250">
<rect width="52" height="52" fill="white"/>
</clipPath>
</defs>
</svg>
