<svg width="64" height="64" viewBox="0 0 64 64" fill="none" xmlns="http://www.w3.org/2000/svg">
<g clip-path="url(#clip0_1270_1494)">
<mask id="mask0_1270_1494" style="mask-type:luminance" maskUnits="userSpaceOnUse" x="0" y="0" width="64" height="64">
<path d="M64 0H0V64H64V0Z" fill="white"/>
</mask>
<g mask="url(#mask0_1270_1494)">
<path d="M32.3184 36.0812C32.265 36.0812 32.185 36.0812 32.1317 36.0812C32.0517 36.0812 31.945 36.0812 31.865 36.0812C25.8117 35.8946 21.2783 31.1746 21.2783 25.3612C21.2783 19.4412 26.105 14.6145 32.025 14.6145C37.945 14.6145 42.7717 19.4412 42.7717 25.3612C42.745 31.2012 38.185 35.8946 32.3984 36.0812C32.345 36.0812 32.345 36.0812 32.3184 36.0812ZM31.9984 18.5878C28.265 18.5878 25.2517 21.6278 25.2517 25.3345C25.2517 28.9879 28.105 31.9479 31.7317 32.0812C31.8117 32.0546 32.0784 32.0546 32.345 32.0812C35.9184 31.8946 38.7184 28.9612 38.745 25.3345C38.745 21.6278 35.7317 18.5878 31.9984 18.5878Z" fill="black"/>
<path d="M31.9999 60.6675C24.8266 60.6675 17.9732 58.0008 12.6666 53.1475C12.1866 52.7208 11.9732 52.0808 12.0266 51.4675C12.3732 48.2942 14.3466 45.3342 17.6266 43.1475C25.5732 37.8675 38.4533 37.8675 46.3733 43.1475C49.6533 45.3608 51.6266 48.2942 51.9733 51.4675C52.0533 52.1075 51.8133 52.7208 51.3333 53.1475C46.0266 58.0008 39.1733 60.6675 31.9999 60.6675ZM16.2132 50.9342C20.6399 54.6408 26.2132 56.6675 31.9999 56.6675C37.7866 56.6675 43.3599 54.6408 47.7866 50.9342C47.3066 49.3075 46.0266 47.7342 44.1333 46.4542C37.5733 42.0808 26.4532 42.0808 19.8399 46.4542C17.9466 47.7342 16.6932 49.3075 16.2132 50.9342Z" fill="black"/>
<path d="M31.9997 60.6666C16.1863 60.6666 3.33301 47.8132 3.33301 31.9999C3.33301 16.1866 16.1863 3.33325 31.9997 3.33325C47.813 3.33325 60.6663 16.1866 60.6663 31.9999C60.6663 47.8132 47.813 60.6666 31.9997 60.6666ZM31.9997 7.33325C18.3997 7.33325 7.33301 18.3999 7.33301 31.9999C7.33301 45.5999 18.3997 56.6666 31.9997 56.6666C45.5997 56.6666 56.6663 45.5999 56.6663 31.9999C56.6663 18.3999 45.5997 7.33325 31.9997 7.33325Z" fill="black"/>
</g>
</g>
<defs>
<clipPath id="clip0_1270_1494">
<rect width="64" height="64" fill="white"/>
</clipPath>
</defs>
</svg>
