<svg width="52" height="52" viewBox="0 0 52 52" fill="none" xmlns="http://www.w3.org/2000/svg">
<g clip-path="url(#clip0_1270_1356)">
<mask id="mask0_1270_1356" style="mask-type:luminance" maskUnits="userSpaceOnUse" x="0" y="0" width="52" height="52">
<path d="M52 0H0V52H52V0Z" fill="white"/>
</mask>
<g mask="url(#mask0_1270_1356)">
<path d="M35.078 4.33337H16.9213C9.03467 4.33337 4.33301 9.03504 4.33301 16.9217V35.0567C4.33301 42.965 9.03467 47.6667 16.9213 47.6667H35.0563C42.943 47.6667 47.6447 42.965 47.6447 35.0784V16.9217C47.6663 9.03504 42.9647 4.33337 35.078 4.33337ZM31.763 29.7484L28.9897 31.3517L26.2163 32.955C22.6413 35.0134 19.7163 33.3234 19.7163 29.2067V26V22.7934C19.7163 18.655 22.6413 16.9867 26.2163 19.045L28.9897 20.6484L31.763 22.2517C35.338 24.31 35.338 27.69 31.763 29.7484Z" fill="black"/>
</g>
</g>
<defs>
<clipPath id="clip0_1270_1356">
<rect width="52" height="52" fill="white"/>
</clipPath>
</defs>
</svg>
