<svg width="52" height="52" viewBox="0 0 52 52" fill="none" xmlns="http://www.w3.org/2000/svg">
<g clip-path="url(#clip0_1270_1362)">
<mask id="mask0_1270_1362" style="mask-type:luminance" maskUnits="userSpaceOnUse" x="0" y="0" width="52" height="52">
<path d="M52 0H0V52H52V0Z" fill="white"/>
</mask>
<g mask="url(#mask0_1270_1362)">
<path d="M36.2925 7.71337V4.33337C36.2925 3.44504 35.5558 2.70837 34.6675 2.70837C33.7792 2.70837 33.0425 3.44504 33.0425 4.33337V7.58337H18.9592V4.33337C18.9592 3.44504 18.2225 2.70837 17.3342 2.70837C16.4458 2.70837 15.7092 3.44504 15.7092 4.33337V7.71337C9.85916 8.25504 7.02082 11.7434 6.58749 16.9217C6.54416 17.55 7.06416 18.07 7.67082 18.07H44.3308C44.9592 18.07 45.4792 17.5284 45.4142 16.9217C44.9808 11.7434 42.1425 8.25504 36.2925 7.71337Z" fill="black"/>
<path d="M43.3333 21.3197H8.66667C7.475 21.3197 6.5 22.2946 6.5 23.4863V36.8329C6.5 43.3329 9.75 47.6663 17.3333 47.6663H34.6667C42.25 47.6663 45.5 43.3329 45.5 36.8329V23.4863C45.5 22.2946 44.525 21.3197 43.3333 21.3197ZM19.955 39.4546C19.8467 39.5413 19.7383 39.6496 19.63 39.7146C19.5 39.8013 19.37 39.8663 19.24 39.9096C19.11 39.9746 18.98 40.0179 18.85 40.0396C18.6983 40.0613 18.5683 40.0829 18.4167 40.0829C18.135 40.0829 17.8533 40.0179 17.5933 39.9096C17.3117 39.8013 17.095 39.6496 16.8783 39.4546C16.4883 39.0429 16.25 38.4796 16.25 37.9163C16.25 37.3529 16.4883 36.7896 16.8783 36.3779C17.095 36.1829 17.3117 36.0313 17.5933 35.9229C17.9833 35.7496 18.4167 35.7063 18.85 35.7929C18.98 35.8146 19.11 35.8579 19.24 35.9229C19.37 35.9663 19.5 36.0313 19.63 36.1179C19.7383 36.2046 19.8467 36.2913 19.955 36.3779C20.345 36.7896 20.5833 37.3529 20.5833 37.9163C20.5833 38.4796 20.345 39.0429 19.955 39.4546ZM19.955 31.8713C19.5433 32.2613 18.98 32.4996 18.4167 32.4996C17.8533 32.4996 17.29 32.2613 16.8783 31.8713C16.4883 31.4596 16.25 30.8963 16.25 30.3329C16.25 29.7696 16.4883 29.2063 16.8783 28.7946C17.485 28.1879 18.4383 27.9929 19.24 28.3396C19.5217 28.4479 19.76 28.5996 19.955 28.7946C20.345 29.2063 20.5833 29.7696 20.5833 30.3329C20.5833 30.8963 20.345 31.4596 19.955 31.8713ZM27.5383 39.4546C27.1267 39.8446 26.5633 40.0829 26 40.0829C25.4367 40.0829 24.8733 39.8446 24.4617 39.4546C24.0717 39.0429 23.8333 38.4796 23.8333 37.9163C23.8333 37.3529 24.0717 36.7896 24.4617 36.3779C25.2633 35.5763 26.7367 35.5763 27.5383 36.3779C27.9283 36.7896 28.1667 37.3529 28.1667 37.9163C28.1667 38.4796 27.9283 39.0429 27.5383 39.4546ZM27.5383 31.8713C27.43 31.9579 27.3217 32.0446 27.2133 32.1313C27.0833 32.2179 26.9533 32.2829 26.8233 32.3263C26.6933 32.3913 26.5633 32.4346 26.4333 32.4563C26.2817 32.4779 26.1517 32.4996 26 32.4996C25.4367 32.4996 24.8733 32.2613 24.4617 31.8713C24.0717 31.4596 23.8333 30.8963 23.8333 30.3329C23.8333 29.7696 24.0717 29.2063 24.4617 28.7946C24.6567 28.5996 24.895 28.4479 25.1767 28.3396C25.9783 27.9929 26.9317 28.1879 27.5383 28.7946C27.9283 29.2063 28.1667 29.7696 28.1667 30.3329C28.1667 30.8963 27.9283 31.4596 27.5383 31.8713ZM35.1217 39.4546C34.71 39.8446 34.1467 40.0829 33.5833 40.0829C33.02 40.0829 32.4567 39.8446 32.045 39.4546C31.655 39.0429 31.4167 38.4796 31.4167 37.9163C31.4167 37.3529 31.655 36.7896 32.045 36.3779C32.8467 35.5763 34.32 35.5763 35.1217 36.3779C35.5117 36.7896 35.75 37.3529 35.75 37.9163C35.75 38.4796 35.5117 39.0429 35.1217 39.4546ZM35.1217 31.8713C35.0133 31.9579 34.905 32.0446 34.7967 32.1313C34.6667 32.2179 34.5367 32.2829 34.4067 32.3263C34.2767 32.3913 34.1467 32.4346 34.0167 32.4563C33.865 32.4779 33.7133 32.4996 33.5833 32.4996C33.02 32.4996 32.4567 32.2613 32.045 31.8713C31.655 31.4596 31.4167 30.8963 31.4167 30.3329C31.4167 29.7696 31.655 29.2063 32.045 28.7946C32.2617 28.5996 32.4783 28.4479 32.76 28.3396C33.15 28.1663 33.5833 28.1229 34.0167 28.2096C34.1467 28.2313 34.2767 28.2746 34.4067 28.3396C34.5367 28.3829 34.6667 28.4479 34.7967 28.5346C34.905 28.6213 35.0133 28.7079 35.1217 28.7946C35.5117 29.2063 35.75 29.7696 35.75 30.3329C35.75 30.8963 35.5117 31.4596 35.1217 31.8713Z" fill="black"/>
</g>
</g>
<defs>
<clipPath id="clip0_1270_1362">
<rect width="52" height="52" fill="white"/>
</clipPath>
</defs>
</svg>
