<svg width="52" height="52" viewBox="0 0 52 52" fill="none" xmlns="http://www.w3.org/2000/svg">
<g clip-path="url(#clip0_1270_1272)">
<mask id="mask0_1270_1272" style="mask-type:luminance" maskUnits="userSpaceOnUse" x="0" y="0" width="52" height="52">
<path d="M52 0H0V52H52V0Z" fill="white"/>
</mask>
<g mask="url(#mask0_1270_1272)">
<path d="M15.6863 4.33313H11.5697C6.82467 4.33313 4.33301 6.8248 4.33301 11.5481V15.6648C4.33301 20.3881 6.82467 22.8798 11.548 22.8798H15.6647C20.388 22.8798 22.8797 20.3881 22.8797 15.6648V11.5481C22.9013 6.8248 20.4097 4.33313 15.6863 4.33313Z" fill="black"/>
<path d="M40.4508 4.33313H36.3341C31.6108 4.33313 29.1191 6.8248 29.1191 11.5481V15.6648C29.1191 20.3881 31.6108 22.8798 36.3341 22.8798H40.4508C45.1741 22.8798 47.6658 20.3881 47.6658 15.6648V11.5481C47.6658 6.8248 45.1741 4.33313 40.4508 4.33313Z" fill="black"/>
<path d="M40.4508 29.0977H36.3341C31.6108 29.0977 29.1191 31.5893 29.1191 36.3127V40.4293C29.1191 45.1527 31.6108 47.6443 36.3341 47.6443H40.4508C45.1741 47.6443 47.6658 45.1527 47.6658 40.4293V36.3127C47.6658 31.5893 45.1741 29.0977 40.4508 29.0977Z" fill="black"/>
<path d="M15.6863 29.0977H11.5697C6.82467 29.0977 4.33301 31.5893 4.33301 36.3127V40.4293C4.33301 45.1743 6.82467 47.666 11.548 47.666H15.6647C20.388 47.666 22.8797 45.1743 22.8797 40.451V36.3343C22.9013 31.5893 20.4097 29.0977 15.6863 29.0977Z" fill="black"/>
</g>
</g>
<defs>
<clipPath id="clip0_1270_1272">
<rect width="52" height="52" fill="white"/>
</clipPath>
</defs>
</svg>
