<svg width="52" height="52" viewBox="0 0 52 52" fill="none" xmlns="http://www.w3.org/2000/svg">
<path d="M25.9997 2.6001C13.0757 2.6001 2.59973 13.0761 2.59973 26.0001C2.59973 38.9241 13.0757 49.4001 25.9997 49.4001C38.9237 49.4001 49.3997 38.9241 49.3997 26.0001C49.3997 13.0761 38.9237 2.6001 25.9997 2.6001Z" fill="url(#paint0_linear_1270_1475)"/>
<path d="M25.9997 3.5001C38.4071 3.5001 48.4997 13.5927 48.4997 26.0001C48.4997 38.4075 38.4071 48.5001 25.9997 48.5001C13.5923 48.5001 3.49973 38.4075 3.49973 26.0001C3.49973 13.5927 13.5923 3.5001 25.9997 3.5001ZM25.9997 2.6001C13.0757 2.6001 2.59973 13.0761 2.59973 26.0001C2.59973 38.9241 13.0757 49.4001 25.9997 49.4001C38.9237 49.4001 49.3997 38.9241 49.3997 26.0001C49.3997 13.0761 38.9237 2.6001 25.9997 2.6001Z" fill="url(#paint1_linear_1270_1475)"/>
<path d="M27.7993 26.0001C27.7993 26.9937 26.9929 27.8001 25.9993 27.8001H13.3903C12.4003 27.8001 11.5993 26.9991 11.5993 26.0091V25.9893C11.5993 25.0011 12.4003 24.2001 13.3903 24.2001H24.1993V9.79112C24.1993 8.80112 25.0003 8.00012 25.9903 8.00012H26.0101C26.9983 8.00012 27.7993 8.80112 27.7993 9.79112V26.0001Z" fill="url(#paint2_linear_1270_1475)"/>
<defs>
<linearGradient id="paint0_linear_1270_1475" x1="9.45413" y1="9.4545" x2="42.5453" y2="42.5457" gradientUnits="userSpaceOnUse">
<stop stop-color="#1D6DFF" stop-opacity="0.95"/>
<stop offset="1" stop-color="#1D6DFF" stop-opacity="0.5"/>
</linearGradient>
<linearGradient id="paint1_linear_1270_1475" x1="9.45413" y1="9.4545" x2="42.5453" y2="42.5457" gradientUnits="userSpaceOnUse">
<stop offset="0.002" stop-color="white" stop-opacity="0.6"/>
<stop offset="0.493" stop-color="white" stop-opacity="0"/>
<stop offset="0.996" stop-color="white" stop-opacity="0.3"/>
</linearGradient>
<linearGradient id="paint2_linear_1270_1475" x1="17.5231" y1="15.7239" x2="28.1719" y2="26.3727" gradientUnits="userSpaceOnUse">
<stop stop-color="white" stop-opacity="0.8"/>
<stop offset="0.519" stop-color="white" stop-opacity="0.5"/>
<stop offset="1" stop-color="white" stop-opacity="0.6"/>
</linearGradient>
</defs>
</svg>
