<svg width="52" height="52" viewBox="0 0 52 52" fill="none" xmlns="http://www.w3.org/2000/svg">
<g clip-path="url(#clip0_1270_1330)">
<mask id="mask0_1270_1330" style="mask-type:luminance" maskUnits="userSpaceOnUse" x="0" y="0" width="52" height="52">
<path d="M52 0H0V52H52V0Z" fill="white"/>
</mask>
<g mask="url(#mask0_1270_1330)">
<path d="M45.1314 17.3551L30.9397 6.00181C28.1663 3.79181 23.833 3.77014 21.0813 5.98014L6.88959 17.3551C4.85293 18.9801 3.61793 22.2301 4.05126 24.7868L6.78126 41.1234C7.40959 44.7851 10.8113 47.6668 14.5163 47.6668H37.483C41.1447 47.6668 44.6113 44.7201 45.2397 41.1018L47.9697 24.7651C48.3597 22.2301 47.1247 18.9801 45.1314 17.3551ZM27.6247 39.0001C27.6247 39.8884 26.888 40.6251 25.9997 40.6251C25.1113 40.6251 24.3747 39.8884 24.3747 39.0001V32.5001C24.3747 31.6118 25.1113 30.8751 25.9997 30.8751C26.888 30.8751 27.6247 31.6118 27.6247 32.5001V39.0001Z" fill="black"/>
</g>
</g>
<defs>
<clipPath id="clip0_1270_1330">
<rect width="52" height="52" fill="white"/>
</clipPath>
</defs>
</svg>
