<svg width="52" height="52" viewBox="0 0 52 52" fill="none" xmlns="http://www.w3.org/2000/svg">
<path d="M32.7167 41.4912C34.0817 41.4912 35.36 41.1662 36.4867 40.5162C39.1517 38.9779 40.625 35.8796 40.625 31.8062V20.2146C40.625 16.1412 39.1517 13.0429 36.4867 11.5046C33.8217 9.96624 30.42 10.2479 26.8667 12.2846L16.835 18.0696C13.3033 20.1062 11.3533 22.9229 11.3533 25.9996C11.3533 29.0762 13.3033 31.8929 16.835 33.9296L26.8667 39.7146C28.9033 40.9062 30.8967 41.4912 32.7167 41.4912ZM32.7167 13.7796C33.5183 13.7796 34.255 13.9529 34.8833 14.3212C36.4867 15.2529 37.375 17.3329 37.375 20.2146V31.7846C37.375 34.6446 36.4867 36.7462 34.8617 37.6779C33.2367 38.6096 30.9833 38.3279 28.4917 36.8979L18.46 31.1129C15.9683 29.6829 14.6033 27.8629 14.6033 25.9996C14.6033 24.1362 15.9683 22.3162 18.46 20.8862L28.4917 15.1012C30.03 14.2129 31.46 13.7796 32.7167 13.7796Z" fill="black"/>
</svg>
