<svg width="52" height="52" viewBox="0 0 52 52" fill="none" xmlns="http://www.w3.org/2000/svg">
<path d="M37.7866 33.3025C37.3749 33.3025 36.9632 33.1508 36.6382 32.8258C36.0099 32.1975 36.0099 31.1575 36.6382 30.5291L41.0366 26.1308L36.6382 21.7325C36.0099 21.1042 36.0099 20.0642 36.6382 19.4358C37.2666 18.8075 38.3066 18.8075 38.9349 19.4358L44.4816 24.9825C45.1099 25.6108 45.1099 26.6508 44.4816 27.2791L38.9349 32.8258C38.6099 33.1508 38.1982 33.3025 37.7866 33.3025Z" fill="black"/>
<path d="M43.1815 27.7542H21.1465C20.2582 27.7542 19.5215 27.0175 19.5215 26.1292C19.5215 25.2408 20.2582 24.5042 21.1465 24.5042H43.1815C44.0698 24.5042 44.8065 25.2408 44.8065 26.1292C44.8065 27.0175 44.0698 27.7542 43.1815 27.7542Z" fill="black"/>
<path d="M25.4798 44.9584C14.3215 44.9584 6.52148 37.1584 6.52148 26.0001C6.52148 14.8417 14.3215 7.04175 25.4798 7.04175C26.3681 7.04175 27.1048 7.77841 27.1048 8.66675C27.1048 9.55508 26.3681 10.2917 25.4798 10.2917C16.2282 10.2917 9.77148 16.7484 9.77148 26.0001C9.77148 35.2517 16.2282 41.7084 25.4798 41.7084C26.3681 41.7084 27.1048 42.4451 27.1048 43.3334C27.1048 44.2217 26.3681 44.9584 25.4798 44.9584Z" fill="black"/>
</svg>
