<svg width="20" height="20" viewBox="0 0 20 20" fill="none" xmlns="http://www.w3.org/2000/svg">
<g clip-path="url(#clip0_1270_1681)">
<mask id="mask0_1270_1681" style="mask-type:luminance" maskUnits="userSpaceOnUse" x="0" y="0" width="20" height="20">
<path d="M20 0H0V20H20V0Z" fill="white"/>
</mask>
<g mask="url(#mask0_1270_1681)">
<path d="M10.3081 7.40063H14.6831" stroke="black" stroke-width="1.25" stroke-linecap="round" stroke-linejoin="round"/>
<path d="M5.31641 7.40064L5.94141 8.02564L7.81641 6.15063" stroke="black" stroke-width="1.25" stroke-linecap="round" stroke-linejoin="round"/>
<path d="M10.3081 13.234H14.6831" stroke="black" stroke-width="1.25" stroke-linecap="round" stroke-linejoin="round"/>
<path d="M5.31641 13.234L5.94141 13.859L7.81641 11.984" stroke="black" stroke-width="1.25" stroke-linecap="round" stroke-linejoin="round"/>
<path d="M7.49984 18.3333H12.4998C16.6665 18.3333 18.3332 16.6666 18.3332 12.5V7.49996C18.3332 3.33329 16.6665 1.66663 12.4998 1.66663H7.49984C3.33317 1.66663 1.6665 3.33329 1.6665 7.49996V12.5C1.6665 16.6666 3.33317 18.3333 7.49984 18.3333Z" stroke="black" stroke-width="1.25" stroke-linecap="round" stroke-linejoin="round"/>
</g>
</g>
<defs>
<clipPath id="clip0_1270_1681">
<rect width="20" height="20" fill="white"/>
</clipPath>
</defs>
</svg>
