<svg width="52" height="52" viewBox="0 0 52 52" fill="none" xmlns="http://www.w3.org/2000/svg">
<path d="M19.2833 41.4912C17.9183 41.4912 16.64 41.1662 15.5133 40.5162C12.8483 38.9779 11.375 35.8796 11.375 31.8062V20.2146C11.375 16.1412 12.8483 13.0429 15.5133 11.5046C18.1783 9.96624 21.58 10.2479 25.1333 12.2846L35.165 18.0696C38.6967 20.1062 40.6467 22.9229 40.6467 25.9996C40.6467 29.0762 38.6967 31.8929 35.165 33.9296L25.1333 39.7146C23.0967 40.9062 21.1033 41.4912 19.2833 41.4912ZM19.2833 13.7796C18.4817 13.7796 17.745 13.9529 17.1167 14.3212C15.5133 15.2529 14.625 17.3329 14.625 20.2146V31.7846C14.625 34.6446 15.5133 36.7462 17.1383 37.6779C18.7633 38.6096 21.0167 38.3279 23.5083 36.8979L33.54 31.1129C36.0317 29.6829 37.3967 27.8629 37.3967 25.9996C37.3967 24.1362 36.0317 22.3162 33.54 20.8862L23.5083 15.1012C21.97 14.2129 20.54 13.7796 19.2833 13.7796Z" fill="black"/>
</svg>
