<svg width="52" height="52" viewBox="0 0 52 52" fill="none" xmlns="http://www.w3.org/2000/svg">
<g clip-path="url(#clip0_1270_1350)">
<mask id="mask0_1270_1350" style="mask-type:luminance" maskUnits="userSpaceOnUse" x="0" y="0" width="52" height="52">
<path d="M52 0H0V52H52V0Z" fill="white"/>
</mask>
<g mask="url(#mask0_1270_1350)">
<path d="M43.5497 19.9755C39.628 19.9755 38.0247 17.2021 39.9747 13.8005C41.1013 11.8288 40.4297 9.31547 38.458 8.1888L34.7097 6.0438C32.998 5.02547 30.788 5.63214 29.7697 7.3438L29.5313 7.75547C27.5813 11.1571 24.3747 11.1571 22.403 7.75547L22.1647 7.3438C21.1897 5.63214 18.9797 5.02547 17.268 6.0438L13.5197 8.1888C11.548 9.31547 10.8763 11.8505 12.003 13.8221C13.9747 17.2021 12.3713 19.9755 8.44967 19.9755C6.19634 19.9755 4.33301 21.817 4.33301 24.092V27.9054C4.33301 30.1587 6.17467 32.022 8.44967 32.022C12.3713 32.022 13.9747 34.7954 12.003 38.197C10.8763 40.1687 11.548 42.682 13.5197 43.8087L17.268 45.9537C18.9797 46.972 21.1897 46.3656 22.208 44.6537L22.4463 44.242C24.3963 40.8404 27.603 40.8404 29.5747 44.242L29.813 44.6537C30.8313 46.3656 33.0413 46.972 34.753 45.9537L38.5013 43.8087C40.473 42.682 41.1447 40.147 40.018 38.197C38.0463 34.7954 39.6497 32.022 43.5713 32.022C45.8247 32.022 47.688 30.1804 47.688 27.9054V24.092C47.6663 21.8387 45.8247 19.9755 43.5497 19.9755ZM25.9997 33.0404C22.1213 33.0404 18.958 29.877 18.958 25.9987C18.958 22.1204 22.1213 18.9571 25.9997 18.9571C29.878 18.9571 33.0413 22.1204 33.0413 25.9987C33.0413 29.877 29.878 33.0404 25.9997 33.0404Z" fill="black"/>
</g>
</g>
<defs>
<clipPath id="clip0_1270_1350">
<rect width="52" height="52" fill="white"/>
</clipPath>
</defs>
</svg>
