<svg width="52" height="52" viewBox="0 0 52 52" fill="none" xmlns="http://www.w3.org/2000/svg">
<g clip-path="url(#clip0_1270_1336)">
<mask id="mask0_1270_1336" style="mask-type:luminance" maskUnits="userSpaceOnUse" x="0" y="0" width="52" height="52">
<path d="M52 0H0V52H52V0Z" fill="white"/>
</mask>
<g mask="url(#mask0_1270_1336)">
<path d="M36.465 33.887C37.9167 32.9337 39.8234 33.9737 39.8234 35.707V38.502C39.8234 41.2537 37.6784 44.2003 35.1 45.067L28.1884 47.3637C26.975 47.7753 25.0034 47.7753 23.8117 47.3637L16.9001 45.067C14.3001 44.2003 12.1768 41.2537 12.1768 38.502V35.6853C12.1768 33.9737 14.0834 32.9337 15.5134 33.8653L19.9768 36.7687C21.6884 37.917 23.855 38.4803 26.0217 38.4803C28.1884 38.4803 30.355 37.917 32.0667 36.7687L36.465 33.887Z" fill="black"/>
<path d="M43.2893 13.9979L30.3109 5.48285C27.9709 3.94452 24.1143 3.94452 21.7743 5.48285L8.73098 13.9979C4.54931 16.7062 4.54931 22.8377 8.73098 25.5677L12.1976 27.8211L21.7743 34.0611C24.1143 35.5994 27.9709 35.5994 30.3109 34.0611L39.8226 27.8211L42.7909 25.8711V32.5011C42.7909 33.3894 43.5276 34.1261 44.4159 34.1261C45.3043 34.1261 46.0409 33.3894 46.0409 32.5011V21.8411C46.9076 19.0462 46.0193 15.7962 43.2893 13.9979Z" fill="black"/>
</g>
</g>
<defs>
<clipPath id="clip0_1270_1336">
<rect width="52" height="52" fill="white"/>
</clipPath>
</defs>
</svg>
