<svg width="20" height="20" viewBox="0 0 20 20" fill="none" xmlns="http://www.w3.org/2000/svg">
<g clip-path="url(#clip0_1270_1678)">
<path fill-rule="evenodd" clip-rule="evenodd" d="M6.87375 2.5V15.6744C6.87375 17.3994 8.27438 18.7994 9.99875 18.7994C11.7238 18.7994 13.1237 17.3994 13.1237 15.6744V2.5H14.375C14.72 2.5 15 2.22 15 1.875C15 1.53 14.72 1.25 14.375 1.25H5.625C5.28 1.25 5 1.53 5 1.875C5 2.22 5.28 2.5 5.625 2.5H6.87375ZM11.8737 6.09875C11.6469 6.1775 11.3906 6.22125 11.1112 6.19937C10.6581 6.16312 10.1312 5.97375 9.575 5.45812C8.99375 4.91812 8.41625 5.135 8.12375 5.31187V6.86375L9.38062 6.875C9.72562 6.87812 10.0031 7.16062 10 7.50562C9.99688 7.85062 9.71438 8.12812 9.36938 8.125L8.12375 8.11375V9.36188L9.38062 9.37312C9.72562 9.37625 10.0031 9.65875 10 10.0038C9.99688 10.3488 9.71438 10.6262 9.36938 10.6231L8.12375 10.6119V11.86L9.38062 11.8712C9.72562 11.8744 10.0031 12.1569 10 12.5019C9.99688 12.8469 9.71438 13.1244 9.36938 13.1212L8.12375 13.11V14.3581L9.38062 14.3694C9.72562 14.3725 10.0031 14.655 10 15C9.99688 15.345 9.71438 15.6225 9.36938 15.6194L8.12375 15.6081V15.6744C8.12375 16.7094 8.96438 17.5494 9.99875 17.5494C11.0338 17.5494 11.8737 16.7094 11.8737 15.6744V6.09875ZM11.8737 4.73625V2.5H8.12375V3.95375C8.75063 3.76 9.58562 3.7625 10.4256 4.54188C10.7144 4.81 10.975 4.93438 11.2106 4.95313C11.5019 4.97625 11.7344 4.84563 11.8737 4.73625Z" fill="black"/>
</g>
<defs>
<clipPath id="clip0_1270_1678">
<rect width="20" height="20" fill="white"/>
</clipPath>
</defs>
</svg>
