<svg width="76" height="76" viewBox="0 0 76 76" fill="none" xmlns="http://www.w3.org/2000/svg">
<g clip-path="url(#clip0_1270_1400)">
<mask id="mask0_1270_1400" style="mask-type:luminance" maskUnits="userSpaceOnUse" x="0" y="0" width="77" height="77">
<path d="M76.0011 0.000183105H0.00109863V76.0002H76.0011V0.000183105Z" fill="white"/>
</mask>
<g mask="url(#mask0_1270_1400)">
<path d="M57.0007 41.1667C54.024 41.1667 51.269 42.2117 49.084 43.9534C46.1707 46.265 44.334 49.8434 44.334 53.8334C44.334 56.2084 44.999 58.4567 46.1707 60.3567C48.3557 64.03 52.3773 66.5 57.0007 66.5C60.199 66.5 63.1123 65.3284 65.329 63.3334C66.3106 62.51 67.1657 61.4967 67.8307 60.3567C69.0023 58.4567 69.6673 56.2084 69.6673 53.8334C69.6673 46.835 63.999 41.1667 57.0007 41.1667ZM63.5557 52.4717L56.8107 58.71C56.3673 59.1217 55.7657 59.3434 55.1957 59.3434C54.594 59.3434 53.9923 59.1217 53.5173 58.6467L50.3823 55.5117C49.464 54.5934 49.464 53.0734 50.3823 52.155C51.3007 51.2367 52.8206 51.2367 53.739 52.155L55.259 53.675L60.3256 48.9884C61.2756 48.1017 62.7957 48.165 63.6823 49.115C64.569 50.065 64.5057 51.5534 63.5557 52.4717Z" fill="black"/>
<path opacity="0.4" d="M66.7857 68.0834C66.7857 68.9701 66.0891 69.6668 65.2024 69.6668H10.7992C9.91249 69.6668 9.21582 68.9701 9.21582 68.0834C9.21582 54.9734 22.1358 44.3334 38.0007 44.3334C41.2624 44.3334 44.4291 44.7768 47.3424 45.6318C45.4741 47.8484 44.3341 50.7301 44.3341 53.8334C44.3341 56.2084 44.9991 58.4568 46.1707 60.3568C46.8041 61.4334 47.6274 62.4151 48.5774 63.2384C50.7941 65.2651 53.7391 66.5001 57.0007 66.5001C60.5474 66.5001 63.7457 65.0434 66.0257 62.7001C66.5324 64.4101 66.7857 66.2151 66.7857 68.0834Z" fill="black"/>
<path d="M38.0003 38.0001C46.7448 38.0001 53.8337 30.9112 53.8337 22.1668C53.8337 13.4223 46.7448 6.33342 38.0003 6.33342C29.2558 6.33342 22.167 13.4223 22.167 22.1668C22.167 30.9112 29.2558 38.0001 38.0003 38.0001Z" fill="black"/>
</g>
</g>
<defs>
<clipPath id="clip0_1270_1400">
<rect width="76" height="76" fill="white"/>
</clipPath>
</defs>
</svg>
