<svg width="52" height="52" viewBox="0 0 52 52" fill="none" xmlns="http://www.w3.org/2000/svg">
<g clip-path="url(#clip0_1270_1459)">
<mask id="mask0_1270_1459" style="mask-type:luminance" maskUnits="userSpaceOnUse" x="0" y="0" width="52" height="52">
<path d="M52 0H0V52H52V0Z" fill="white"/>
</mask>
<g mask="url(#mask0_1270_1459)">
<path d="M35.0784 4.33333H16.9217C9.03504 4.33333 4.33337 9.03499 4.33337 16.9217V35.0567C4.33337 42.965 9.03504 47.6667 16.9217 47.6667H35.0567C42.9434 47.6667 47.645 42.965 47.645 35.0783V16.9217C47.6667 9.03499 42.965 4.33333 35.0784 4.33333ZM36.3567 21.0167L24.0717 33.3017C23.7684 33.605 23.3567 33.7783 22.9234 33.7783C22.49 33.7783 22.0784 33.605 21.775 33.3017L15.6434 27.17C15.015 26.5417 15.015 25.5017 15.6434 24.8733C16.2717 24.245 17.3117 24.245 17.94 24.8733L22.9234 29.8567L34.06 18.72C34.6884 18.0917 35.7284 18.0917 36.3567 18.72C36.985 19.3483 36.985 20.3667 36.3567 21.0167Z" fill="black"/>
</g>
</g>
<defs>
<clipPath id="clip0_1270_1459">
<rect width="52" height="52" fill="white"/>
</clipPath>
</defs>
</svg>
