<svg width="52" height="52" viewBox="0 0 52 52" fill="none" xmlns="http://www.w3.org/2000/svg">
<mask id="mask0_1270_1465" style="mask-type:luminance" maskUnits="userSpaceOnUse" x="0" y="0" width="52" height="52">
<path d="M52 0H0V52H52V0Z" fill="white"/>
</mask>
<g mask="url(#mask0_1270_1465)">
<path d="M25.9567 26C31.9367 26 36.79 21.1467 36.79 15.1667C36.79 9.18666 31.9583 4.33333 25.9567 4.33333C19.955 4.33333 15.1233 9.18666 15.1233 15.1667C15.1233 21.1467 19.9766 26 25.9567 26Z" fill="black"/>
<path opacity="0.4" d="M41.9035 42.2283C41.5569 43.5067 40.4735 44.33 39.1519 44.33C37.8302 44.33 36.7469 43.5067 36.4002 42.2067L35.8369 40.105C35.5335 39.0217 34.7102 38.1983 33.6269 37.895L31.5035 37.31C30.2685 36.9633 29.4235 35.88 29.4235 34.5583C29.4235 33.9083 29.6185 33.3233 29.9652 32.8683C28.6652 32.63 27.3435 32.5 25.9569 32.5C16.7052 32.5 9.03521 38.0033 7.58354 45.1967C7.32354 46.475 8.36354 47.6667 9.68521 47.6667H42.2285C43.5285 47.6667 44.5685 46.475 44.3302 45.1967C44.0052 43.5283 43.3119 41.9467 42.3585 40.495L41.9035 42.2478V42.2283Z" fill="black"/>
<path d="M46.7568 34.6014C46.7568 34.7531 46.6702 35.0998 46.2585 35.2298L44.1352 35.8148C42.2935 36.3131 40.9068 37.6998 40.4085 39.5414L39.8451 41.6214C39.7151 42.0981 39.3468 42.1414 39.1735 42.1414C39.0001 42.1414 38.6318 42.0981 38.5018 41.6214L37.9385 39.5198C37.4402 37.6998 36.0318 36.3131 34.2118 35.8148L32.1101 35.2514C31.6551 35.1214 31.6118 34.7314 31.6118 34.5798C31.6118 34.4064 31.6551 34.0164 32.1101 33.8864L34.2335 33.3231C36.0535 32.8031 37.4402 31.4164 37.9385 29.5964L38.5452 27.3864C38.6968 27.0181 39.0435 26.9531 39.1735 26.9531C39.3035 26.9531 39.6718 26.9964 39.8018 27.3431L40.4085 29.5748C40.9068 31.3948 42.3152 32.7814 44.1352 33.3014L46.3018 33.9081C46.7352 34.0814 46.7568 34.4714 46.7568 34.6014Z" fill="black"/>
</g>
</svg>
