<svg width="76" height="76" viewBox="0 0 76 76" fill="none" xmlns="http://www.w3.org/2000/svg">
<mask id="mask0_1270_1409" style="mask-type:luminance" maskUnits="userSpaceOnUse" x="-1" y="0" width="77" height="77">
<path d="M75.9998 0.00012207H-0.000244141V76.0001H75.9998V0.00012207Z" fill="white"/>
</mask>
<g mask="url(#mask0_1270_1409)">
<path opacity="0.4" d="M66.7844 68.0834C66.7844 68.97 66.0877 69.6667 65.201 69.6667H10.7978C9.91114 69.6667 9.21448 68.97 9.21448 68.0834C9.21448 54.9734 22.1345 44.3334 37.9994 44.3334C41.261 44.3334 44.4277 44.7767 47.3411 45.6317C45.4727 47.8484 44.3327 50.73 44.3327 53.8334C44.3327 56.2084 44.9977 58.4567 46.1694 60.3567C46.8027 61.4334 47.626 62.415 48.576 63.2384C50.7927 65.265 53.7377 66.5 56.9994 66.5C60.546 66.5 63.7444 65.0434 66.0244 62.7C66.5311 64.41 66.7844 66.215 66.7844 68.0834Z" fill="black"/>
<path d="M69.2866 50.7927C68.97 49.5577 68.4633 48.3227 67.7667 47.2143C67.2917 46.391 66.6583 45.5993 65.9617 44.871C63.6817 42.591 60.705 41.356 57.665 41.1977C54.2133 40.976 50.6983 42.2427 48.0383 44.871C45.5367 47.3727 44.27 50.6977 44.3333 54.0227C44.365 57.1893 45.6317 60.356 48.0383 62.7943C49.7167 64.4727 51.775 65.581 53.96 66.0877C55.1633 66.4043 56.43 66.531 57.6966 66.436C60.705 66.3093 63.65 65.106 65.9617 62.7943C69.2233 59.5327 70.3316 54.941 69.2866 50.7927ZM62.0667 58.8993C61.1483 59.8177 59.6283 59.8177 58.71 58.8993L56.9683 57.1577L55.29 58.836C54.3716 59.7543 52.8517 59.7543 51.9333 58.836C51.015 57.886 51.015 56.3977 51.9333 55.4793L53.6117 53.801L51.9967 52.2177C51.0783 51.2677 51.0783 49.7793 51.9967 48.8293C52.9467 47.911 54.435 47.911 55.385 48.8293L56.9683 50.4443L58.6467 48.766C59.565 47.8477 61.0533 47.8477 62.0033 48.766C62.9217 49.6843 62.9217 51.2043 62.0033 52.1227L60.325 53.801L62.0667 55.5427C62.985 56.461 62.985 57.981 62.0667 58.8993Z" fill="black"/>
<path d="M37.999 38C46.7434 38 53.8323 30.9112 53.8323 22.1667C53.8323 13.4222 46.7434 6.33336 37.999 6.33336C29.2545 6.33336 22.1656 13.4222 22.1656 22.1667C22.1656 30.9112 29.2545 38 37.999 38Z" fill="black"/>
</g>
</svg>
