<svg width="52" height="52" viewBox="0 0 52 52" fill="none" xmlns="http://www.w3.org/2000/svg">
<g clip-path="url(#clip0_1270_1426)">
<mask id="mask0_1270_1426" style="mask-type:luminance" maskUnits="userSpaceOnUse" x="0" y="0" width="52" height="52">
<path d="M52 0H0V52H52V0Z" fill="white"/>
</mask>
<g mask="url(#mask0_1270_1426)">
<path d="M35.0784 4.33333H16.9217C9.03504 4.33333 4.33337 9.03499 4.33337 16.9217V35.0567C4.33337 42.965 9.03504 47.6667 16.9217 47.6667H35.0567C42.9434 47.6667 47.645 42.965 47.645 35.0783V16.9217C47.6667 9.03499 42.965 4.33333 35.0784 4.33333ZM33.28 30.9833C33.9084 31.6117 33.9084 32.6517 33.28 33.28C32.955 33.605 32.5434 33.7567 32.1317 33.7567C31.72 33.7567 31.3084 33.605 30.9834 33.28L26 28.2967L21.0167 33.28C20.6917 33.605 20.28 33.7567 19.8684 33.7567C19.4567 33.7567 19.045 33.605 18.72 33.28C18.0917 32.6517 18.0917 31.6117 18.72 30.9833L23.7034 26L18.72 21.0167C18.0917 20.3883 18.0917 19.3483 18.72 18.72C19.3484 18.0917 20.3884 18.0917 21.0167 18.72L26 23.7033L30.9834 18.72C31.6117 18.0917 32.6517 18.0917 33.28 18.72C33.9084 19.3483 33.9084 20.3883 33.28 21.0167L28.2967 26L33.28 30.9833Z" fill="black"/>
</g>
</g>
<defs>
<clipPath id="clip0_1270_1426">
<rect width="52" height="52" fill="white"/>
</clipPath>
</defs>
</svg>
